<?xml version="1.0" encoding="utf-8"?>
<!-- Generator: Adobe Illustrator 25.0.0, SVG Export Plug-In . SVG Version: 6.00 Build 0)  -->
<svg version="1.1" id="Calque_1" xmlns="http://www.w3.org/2000/svg" xmlns:xlink="http://www.w3.org/1999/xlink" x="0px" y="0px"
	 viewBox="0 0 714.2 162.2" style="enable-background:new 0 0 714.2 162.2;" xml:space="preserve">
<style type="text/css">
	.st0{fill:#FFFFFF;}
	.st1{fill:#009439;}
</style>
<g>
	<path class="st0" d="M142.3,157.9h-21.8l-19.7-76.1v72.1h5.6v4.1H77.3v-4.1h5.6V5.1h-5.6v-4h29.1v4h-5.6v67.9l24.6-67.9h-5.6v-4
		h16.7v4h-5.6l-19.2,53.2l24.8,95.6h5.7L142.3,157.9z M91.9,153.9V5.1h-4.5v148.8H91.9z M128.4,153.9l-21.5-83.6l-2.7,7.4l19.8,76.1
		H128.4z"/>
	<path class="st1" d="M213.8,157.9h-29.1v-4.1h5.6l-4.1-45.5h-16.1l-4.5,45.5h5.6v4.1h-16.8v-4.1h5.6L175.7,1.1h17.9l14.6,152.8h5.6
		L213.8,157.9z M186,104.4l-7.4-84.8l-8.2,84.8H186z M199.2,153.9L185.1,5.1h-4.5l14.1,148.8H199.2z"/>
	<path class="st0" d="M291.9,157.9h-7.8c-10.5,0-15.8-5.5-15.8-16.4V86.1c0-5-4-9-9-9h-7.8v76.8h5.6v4.1h-29.1v-4.1h5.6V5.1h-5.6v-4
		h31.3c6.9-0.2,13.7,2.2,19,6.7c5.3,4.5,7.9,9.9,7.9,16.1v30.3c0,9.8-5.2,16.7-15.6,20.8c10.4,4.4,15.6,11.3,15.6,20.9v52
		c0,4,1.7,6,5.1,6h0.4L291.9,157.9z M242.6,153.9V5.1h-4.5v148.8H242.6z M268.3,64.1v-50c0-2.4-0.9-4.7-2.6-6.3
		c-1.7-1.7-4-2.7-6.3-2.6h-7.8v67.9h7.8C264.4,73.1,268.4,69,268.3,64.1L268.3,64.1z M277.3,57.9V20.5c0-6-2.7-10.8-8-14.1
		c2.3,2.7,3.5,6.3,3.5,10.9v43.6c0,4.6-1.2,8.3-3.5,11C274.7,68.5,277.3,63.8,277.3,57.9L277.3,57.9z M281.8,155
		c-3-1.7-4.5-4.9-4.5-9.6V92.3c0-6-2.7-10.7-8-14.1c2.3,2.8,3.5,6.4,3.5,10.9v54.2C272.8,150.1,275.8,154,281.8,155z"/>
	<path class="st1" d="M364.5,157.9h-29.1v-4.1h5.6l-4-45.5h-16.1l-4.5,45.5h5.6v4.1h-16.9v-4.1h5.6L326.4,1.1h17.9l14.5,152.8h5.6
		V157.9z M336.7,104.4l-7.4-84.8l-8.2,84.8H336.7z M350,153.9L335.8,5.1h-4.5l14.1,148.8H350z"/>
	<path class="st0" d="M432.8,136.2c0.1,6.2-2.6,12.2-7.4,16.2c-4.9,4.4-11,6.6-18.3,6.6c-7.3,0-13.4-2.2-18.4-6.7
		c-4.7-4-7.4-10-7.4-16.2v-25.2h17.9V146c0,6,2.6,9,7.9,9c5.3,0,7.8-3,7.8-9v-27.2c0.1-6.9-1.7-13.7-5.4-19.6L387,64.3
		c-3.8-6-5.9-13-5.8-20.1V22.9c-0.1-6.2,2.6-12.2,7.4-16.2c4.9-4.4,11.1-6.7,18.5-6.7c7.4,0,13.5,2.2,18.3,6.7
		c4.7,4,7.4,10,7.4,16.2v25.3h-17.9V13c0-6-2.6-9-7.8-9c-5.2,0-7.8,3-7.9,9v26.3c-0.1,6.9,1.7,13.6,5.4,19.5L427,93.6
		c3.9,6,5.9,13.1,5.8,20.2L432.8,136.2z M423.8,139.8v-23.5c0.1-7-1.8-14-5.6-19.9l-22.4-34.8c-3.8-5.9-5.7-12.9-5.6-19.9V18.6
		c-0.1-3.8,0.9-7.5,3-10.7c-5,3.3-7.4,7.8-7.4,13.4v21.4c-0.1,7.1,1.8,14,5.6,20l22.4,34.7c3.8,5.9,5.7,12.9,5.6,19.9V143
		c0,4.5-1.2,8.2-3.5,10.9C421.1,150.5,423.8,145.8,423.8,139.8L423.8,139.8z M393.1,151.3c-2.1-3.2-3.1-7-3-10.8V115h-4.5v22.9
		C385.7,143.4,388.2,147.8,393.1,151.3L393.1,151.3z M423.8,44.2V19.2c0-6-2.7-10.7-8-14.1c2.3,2.8,3.5,6.5,3.5,11.1v28L423.8,44.2z
		"/>
	<path class="st1" d="M481.5,157.9h-29.1v-4.1h5.6V5.1h-5.6v-4h29.1v4h-5.6v148.8h5.6V157.9z M466.9,153.9V5.1h-4.5v148.8H466.9z"/>
	<path class="st0" d="M556.7,5.1h-5.6v152.8h-14.3L509.7,35.9v118h5.6v4.1h-16.7v-4.1h5.6V5.1h-5.6v-4h22.6L545.5,110V5.1H540v-4
		h16.7L556.7,5.1z M546.4,153.9L513.5,5.1h-4.9l32.9,148.8H546.4z"/>
	<path class="st1" d="M630.4,136.2c0,6.3-2.6,11.7-7.9,16.1c-11.1,9-26.9,9-38,0c-5.3-4.5-7.9-9.9-7.9-16.1V22.9
		c0-6.3,2.6-11.6,7.9-16.1c11.1-9,26.9-9,38,0c5.3,4.5,7.9,9.9,7.9,16.1V136.2z M588.5,151.3c-2.1-3.2-3.1-7-3-10.8V18.6
		c-0.1-3.8,0.9-7.5,3-10.7c-5,3.3-7.4,7.8-7.4,13.4v116.5C581.1,143.3,583.6,147.8,588.5,151.3z M612.5,146V13
		c0-2.4-0.9-4.7-2.6-6.3c-3.5-3.5-9.2-3.5-12.7,0c-1.7,1.7-2.7,4-2.7,6.3v133c-0.4,5,3.3,9.3,8.2,9.7s9.3-3.3,9.7-8.2
		C612.5,147,612.5,146.5,612.5,146L612.5,146z M621.5,139.8V19.2c0-6-2.7-10.7-8.1-14.1c2.4,2.8,3.5,6.5,3.5,11.1V143
		c0,4.5-1.2,8.2-3.6,10.9C618.8,150.5,621.5,145.8,621.5,139.8L621.5,139.8z"/>
</g>
<path class="st1" d="M43.3,46.9c-1,0.1-1.9,0.4-2.8,0.9c-1.7,0.9-3.3,2.1-4.6,3.6c-0.8,1-1.5,2-2.1,3.1c-0.4,1.2-0.6,2.4-0.6,3.6
	c-0.1,1.2-0.2,1.8-0.4,5c0,1.6-0.2,3.2-0.5,4.8c-0.1,0.1-0.3-1.2-0.8-5.5c-0.7-6.3-0.9-7.4-1.6-8.9c-1.2-2.5-3.5-4.4-6.2-5.2
	c-1.4-0.4-2.8-0.4-4.2,0c-1.4,0.4-2.7,1.1-3.9,2.1c-1.3,1-2.4,2.3-3.4,3.6c-0.9,1.1-1.8,2.2-2.5,3.5c-0.1,0.2-0.2,0.3-0.4,0.4
	C9,58,8.5,58.4,8,58.8c-0.9,0.7-1.8,1.5-2.6,2.3c-1,1-1.8,2.3-2.2,3.6c-0.3,0.8-0.4,1.7-0.3,2.6c-0.1,1,0.1,2,0.5,3
	c0.5,0.8,1.1,1.6,1.8,2.2c1.4,1.1,3,1.9,4.7,2.5c2.8,0.8,5.6,1.2,8.5,1.4c1.8,0.1,3.6,0.3,5.3,0.6l0.2,0.1l-0.2,0.2
	c-0.2,0.2-0.5,0.3-1.3,0.4s-2.1,0.2-4.4,0.2c-2.5-0.1-5,0.1-7.4,0.6c-2.1,0.7-4,2-5.4,3.7c-1.4,1.8-1.9,3.3-2.2,6.4
	c-0.1,0.8-0.1,1.7,0,2.5c0.5,1.1,1.2,2.1,2,3c0.7,0.9,1.5,1.7,2.3,2.4l0.9,0.8l0.4,1c0.2,0.5,0.6,1.2,0.7,1.4c0.9,1.6,2,3,3.3,4.3
	c0.8,0.9,1.9,1.5,3.1,1.8c1.9,0.5,3.8,0.6,5.7,0.4c1.6-0.4,3.1-1.3,4.3-2.5c0.7-0.7,1.2-1.5,1.6-2.4c0.6-1.2,1.1-3.2,1.7-7.2
	c0.5-3,0.8-4.6,1-5.2c0.1-0.5,0.5-0.9,1-1h0.2v0.4c0,0.6-0.2,4.3-0.3,6.3c-0.1,1.7,0,4.4,0,5.2c0.3,2.2,1,4.3,2,6.3
	c0.6,1.3,1.5,2.5,2.5,3.6c0.7,0.7,1.4,1.3,2.3,1.8c0.7,0.3,1.4,0.5,2.1,0.7c0.9,0.2,0.9,0.2,1-0.1c0-0.1,0.1-0.4,0.2-0.8
	c0.2-0.5,0.1-1.1-0.2-1.6c-0.2-0.4-0.3-0.5-1.2-1.4c-1.1-0.9-2-2.1-2.6-3.4c-1.4-2.9-2-5.3-2.2-9.9c-0.1-1.6-0.1-3.3,0.1-4.9
	c0.1-0.5,0.1-0.5,0.2-0.2c0.6,1.6,1,3.3,1.4,5c0.6,2.8,0.8,3.1,1.8,4.7c1.2,1.8,2.6,3.4,4.2,4.7c1.1,1,2.5,1.6,3.9,1.9
	c1.6,0.4,3.4,0.2,4.9-0.6c0.6-0.3,1.2-0.7,1.6-1.2c0.2-0.3,0.5-0.5,0.8-0.7c0.9-0.8,1.3-1.3,2.5-3.6c0.6-1.3,1.4-2.5,2.3-3.7
	c0.5-0.8,1.2-1.4,2-1.9l0.6-0.4l0.2-0.5c0.1-0.2,0.4-0.7,0.5-0.9c0.5-0.9,0.8-1.8,0.9-2.8c0.2-1.2,0.3-2.4,0.3-3.6
	c0.1-1-0.1-1.9-0.6-2.8c-1-2.2-2.8-3.8-5-4.6c-1.1-0.4-2.2-0.7-3.4-0.9c-1.5-0.2-2-0.2-7.7-0.2c-3.2,0-5.6,0-5.6,0s-0.1-0.1,0-0.1
	c1.5-0.3,3-0.5,4.5-0.6c4.2-0.4,5.3-0.6,6.7-1.1c2-0.7,3.9-1.7,5.6-3c1.7-1.1,2.9-2.8,3.5-4.8c0.4-1.5,0.7-3.1,0.7-4.6
	c0-0.9-0.2-1.9-0.7-2.7c-0.6-1.4-1.7-2.6-3-3.3l-2-1.3c-1.5-0.9-2.8-2.1-3.7-3.7c-0.6-0.9-1.2-1.7-1.9-2.4c-1.2-1.4-2.8-2.5-4.6-3
	C45.1,46.9,44.2,46.9,43.3,46.9z"/>
<path class="st0" d="M669.3,46.9c1,0.1,1.9,0.4,2.8,0.9c1.8,0.9,3.3,2.1,4.6,3.6c0.8,1,1.5,2,2.1,3.1c0.4,1.1,0.6,2.3,0.6,3.5
	c0.1,1.2,0.2,1.8,0.4,5c0.1,1.6,0.2,3.2,0.5,4.8c0.1,0.1,0.3-1.2,0.8-5.5c0.7-6.3,0.9-7.4,1.6-8.9c1.2-2.5,3.5-4.4,6.2-5.2
	c1.4-0.4,2.8-0.4,4.2,0c1.4,0.4,2.7,1.1,3.9,2.1c1.3,1.1,2.4,2.3,3.3,3.6c0.9,1.1,1.8,2.2,2.5,3.5c0.1,0.2,0.2,0.3,0.3,0.4
	c0.6,0.4,1.1,0.8,1.6,1.2c0.9,0.7,1.8,1.5,2.6,2.3c1,1,1.8,2.3,2.2,3.6c0.3,0.8,0.4,1.7,0.3,2.6c0.1,1-0.1,2-0.5,3
	c-0.5,0.8-1.1,1.6-1.8,2.2c-1.4,1.1-3,1.9-4.7,2.5c-2.8,0.8-5.6,1.2-8.5,1.4c-1.8,0.1-3.6,0.3-5.3,0.6l-0.2,0.1l0.2,0.2
	c0.2,0.2,0.5,0.3,1.3,0.4s2.1,0.2,4.4,0.2c2.5-0.1,5,0.1,7.4,0.6c2.1,0.7,4,2,5.4,3.7c1.4,1.8,1.9,3.3,2.2,6.4
	c0.1,0.8,0.1,1.7,0,2.5c-0.5,1.1-1.2,2.1-2,3c-0.7,0.9-1.5,1.7-2.3,2.4l-0.9,0.8l-0.5,1c-0.2,0.5-0.6,1.2-0.7,1.4
	c-0.9,1.6-2,3-3.3,4.4c-0.8,0.9-1.9,1.5-3.1,1.8c-1.9,0.5-3.8,0.6-5.7,0.4c-1.6-0.4-3.1-1.3-4.3-2.5c-0.7-0.7-1.2-1.5-1.7-2.4
	c-0.6-1.2-1.1-3.2-1.7-7.2c-0.5-3-0.8-4.6-1-5.2s-0.5-0.9-1-1h-0.2v0.4c0,0.6,0.2,4.3,0.3,6.3c0.1,1.7,0,4.4-0.1,5.2
	c-0.3,2.2-0.9,4.4-1.9,6.4c-0.6,1.3-1.5,2.5-2.5,3.6c-0.6,0.7-1.4,1.3-2.3,1.8c-0.7,0.3-1.4,0.5-2.1,0.7c-0.9,0.2-0.9,0.2-1-0.1
	c0-0.1-0.1-0.4-0.2-0.8c-0.2-0.5-0.1-1.1,0.2-1.6c0.2-0.4,0.3-0.5,1.2-1.4c1.1-0.9,2-2.1,2.6-3.4c1.4-2.9,2-5.3,2.2-9.9
	c0.1-1.6,0.1-3.3-0.1-4.9c-0.1-0.5-0.1-0.5-0.2-0.2c-0.6,1.6-1,3.3-1.4,5c-0.6,2.8-0.8,3.1-1.8,4.7c-1.2,1.8-2.6,3.3-4.2,4.7
	c-1.1,1-2.5,1.6-3.9,1.9c-1.6,0.4-3.4,0.2-4.9-0.6c-0.6-0.3-1.2-0.7-1.6-1.2c-0.2-0.3-0.5-0.5-0.8-0.7c-0.9-0.8-1.3-1.3-2.5-3.6
	c-0.6-1.3-1.4-2.5-2.3-3.7c-0.5-0.8-1.2-1.4-2-1.9l-0.6-0.4l-0.2-0.5c-0.1-0.2-0.4-0.7-0.5-0.9c-0.5-0.9-0.8-1.8-0.9-2.8
	c-0.2-1.2-0.3-2.4-0.3-3.6c-0.1-1,0.1-1.9,0.6-2.8c1-2.2,2.8-3.8,5-4.6c1.1-0.4,2.2-0.7,3.4-0.9c1.5-0.2,2-0.2,7.6-0.2
	c3.2,0,5.6,0,5.6,0s0.1-0.1,0-0.1c-1.5-0.3-3-0.5-4.5-0.6c-4.2-0.4-5.3-0.6-6.7-1.1c-2-0.7-3.9-1.7-5.6-3c-1.7-1.1-3-2.8-3.5-4.8
	c-0.4-1.5-0.7-3.1-0.7-4.6c0-0.9,0.2-1.9,0.7-2.7c0.6-1.4,1.7-2.6,3-3.3l2-1.3c1.5-0.9,2.8-2.1,3.7-3.7c0.6-0.9,1.2-1.7,1.9-2.4
	c1.2-1.5,2.8-2.5,4.6-3C667.6,46.9,668.5,46.9,669.3,46.9z"/>
</svg>
